HIERARCHY
ROOT	mixamorig:Hips
{
	OFFSET	0.000	0.000	0.000
	CHANNELS	6	Xposition	Yposition	Zposition	Yrotation	Xrotation	Zrotation
	JOINT	mixamorig:LeftUpLeg
	{
		OFFSET	8.100	0.000	-0.000
		CHANNELS	3	Yrotation	Xrotation	Zrotation
		JOINT	mixamorig:LeftLeg
		{
			OFFSET	-0.000	43.200	0.000
			CHANNELS	3	Yrotation	Xrotation	Zrotation
			JOINT	mixamorig:LeftFoot
			{
				OFFSET	-0.063	43.300	-0.000
				CHANNELS	3	Yrotation	Xrotation	Zrotation
				End Site
				{
					OFFSET	0.000	14.572	-0.000
				}
			}
		}
	}
	JOINT	mixamorig:RightUpLeg
	{
		OFFSET	-8.100	0.000	-0.000
		CHANNELS	3	Yrotation	Xrotation	Zrotation
		JOINT	mixamorig:RightLeg
		{
			OFFSET	-0.000	43.200	0.000
			CHANNELS	3	Yrotation	Xrotation	Zrotation
			JOINT	mixamorig:RightFoot
			{
				OFFSET	0.063	43.300	-0.000
				CHANNELS	3	Yrotation	Xrotation	Zrotation
				End Site
				{
					OFFSET	-0.000	14.572	0.000
				}
			}
		}
	}
	JOINT	mixamorig:Spine
	{
		OFFSET	0.000	8.484	-0.000
		CHANNELS	3	Yrotation	Xrotation	Zrotation
		JOINT	mixamorig:Spine1
		{
			OFFSET	0.000	15.101	0.000
			CHANNELS	3	Yrotation	Xrotation	Zrotation
			JOINT	mixamorig:Spine2
			{
				OFFSET	0.000	12.749	0.000
				CHANNELS	3	Yrotation	Xrotation	Zrotation
				JOINT	mixamorig:LeftShoulder
				{
					OFFSET	7.000	12.367	0.000
					CHANNELS	3	Yrotation	Xrotation	Zrotation
					JOINT	mixamorig:LeftArm
					{
						OFFSET	0.000	13.606	0.212
						CHANNELS	3	Yrotation	Xrotation	Zrotation
						JOINT	mixamorig:LeftForeArm
						{
							OFFSET	-0.000	27.102	0.000
							CHANNELS	3	Yrotation	Xrotation	Zrotation
							JOINT	mixamorig:LeftHand
							{
								OFFSET	0.000	28.300	0.000
								CHANNELS	3	Yrotation	Xrotation	Zrotation
								JOINT	mixamorig:LeftHandIndex1
								{
									OFFSET	-2.544	7.977	0.103
									CHANNELS	3	Yrotation	Xrotation	Zrotation
									JOINT	mixamorig:LeftHandIndex2
									{
										OFFSET	-0.000	4.500	0.000
										CHANNELS	3	Yrotation	Xrotation	Zrotation
										End Site
										{
											OFFSET	0.000	2.768	0.000
										}
									}
								}
								JOINT	mixamorig:LeftHandMiddle1
								{
									OFFSET	-0.545	8.132	0.103
									CHANNELS	3	Yrotation	Xrotation	Zrotation
									JOINT	mixamorig:LeftHandMiddle2
									{
										OFFSET	0.000	4.700	-0.000
										CHANNELS	3	Yrotation	Xrotation	Zrotation
										End Site
										{
											OFFSET	0.000	3.100	-0.000
										}
									}
								}
								JOINT	mixamorig:LeftHandPinky1
								{
									OFFSET	3.111	6.948	0.103
									CHANNELS	3	Yrotation	Xrotation	Zrotation
									JOINT	mixamorig:LeftHandPinky2
									{
										OFFSET	0.000	3.500	0.000
										CHANNELS	3	Yrotation	Xrotation	Zrotation
										End Site
										{
											OFFSET	-0.000	2.200	-0.000
										}
									}
								}
								JOINT	mixamorig:LeftHandRing1
								{
									OFFSET	1.421	7.699	0.103
									CHANNELS	3	Yrotation	Xrotation	Zrotation
									JOINT	mixamorig:LeftHandRing2
									{
										OFFSET	0.000	4.300	-0.000
										CHANNELS	3	Yrotation	Xrotation	Zrotation
										End Site
										{
											OFFSET	0.000	2.773	0.000
										}
									}
								}
								JOINT	mixamorig:LeftHandThumb1
								{
									OFFSET	-2.785	2.078	0.103
									CHANNELS	3	Yrotation	Xrotation	Zrotation
									JOINT	mixamorig:LeftHandThumb2
									{
										OFFSET	-0.000	3.989	0.000
										CHANNELS	3	Yrotation	Xrotation	Zrotation
										End Site
										{
											OFFSET	-0.000	3.028	0.000
										}
									}
								}
							}
						}
					}
				}
				JOINT	mixamorig:Neck
				{
					OFFSET	-0.000	20.150	0.000
					CHANNELS	3	Yrotation	Xrotation	Zrotation
					JOINT	mixamorig:Head
					{
						OFFSET	-0.000	11.101	0.000
						CHANNELS	3	Yrotation	Xrotation	Zrotation
						End Site
						{
							OFFSET	3.719	6.163	8.747
						}
						End Site
						{
							OFFSET	-3.700	6.163	8.747
						}
					}
				}
				JOINT	mixamorig:RightShoulder
				{
					OFFSET	-7.000	12.367	0.000
					CHANNELS	3	Yrotation	Xrotation	Zrotation
					JOINT	mixamorig:RightArm
					{
						OFFSET	-0.000	13.608	-0.000
						CHANNELS	3	Yrotation	Xrotation	Zrotation
						JOINT	mixamorig:RightForeArm
						{
							OFFSET	0.000	27.102	0.000
							CHANNELS	3	Yrotation	Xrotation	Zrotation
							JOINT	mixamorig:RightHand
							{
								OFFSET	-0.000	28.300	0.000
								CHANNELS	3	Yrotation	Xrotation	Zrotation
								JOINT	mixamorig:RightHandIndex1
								{
									OFFSET	2.543	7.977	0.103
									CHANNELS	3	Yrotation	Xrotation	Zrotation
									JOINT	mixamorig:RightHandIndex2
									{
										OFFSET	-0.000	4.500	0.000
										CHANNELS	3	Yrotation	Xrotation	Zrotation
										End Site
										{
											OFFSET	0.000	2.768	0.000
										}
									}
								}
								JOINT	mixamorig:RightHandMiddle1
								{
									OFFSET	0.545	8.132	0.103
									CHANNELS	3	Yrotation	Xrotation	Zrotation
									JOINT	mixamorig:RightHandMiddle2
									{
										OFFSET	0.000	4.700	0.000
										CHANNELS	3	Yrotation	Xrotation	Zrotation
										End Site
										{
											OFFSET	0.000	3.100	0.000
										}
									}
								}
								JOINT	mixamorig:RightHandPinky1
								{
									OFFSET	-3.111	6.948	0.103
									CHANNELS	3	Yrotation	Xrotation	Zrotation
									JOINT	mixamorig:RightHandPinky2
									{
										OFFSET	-0.000	3.500	0.000
										CHANNELS	3	Yrotation	Xrotation	Zrotation
										End Site
										{
											OFFSET	-0.000	2.200	-0.000
										}
									}
								}
								JOINT	mixamorig:RightHandRing1
								{
									OFFSET	-1.421	7.699	0.103
									CHANNELS	3	Yrotation	Xrotation	Zrotation
									JOINT	mixamorig:RightHandRing2
									{
										OFFSET	0.000	4.300	0.000
										CHANNELS	3	Yrotation	Xrotation	Zrotation
										End Site
										{
											OFFSET	0.000	2.773	0.000
										}
									}
								}
								JOINT	mixamorig:RightHandThumb1
								{
									OFFSET	2.785	2.078	0.103
									CHANNELS	3	Yrotation	Xrotation	Zrotation
									JOINT	mixamorig:RightHandThumb2
									{
										OFFSET	-0.000	3.989	0.000
										CHANNELS	3	Yrotation	Xrotation	Zrotation
										End Site
										{
											OFFSET	0.000	3.028	-0.000
										}
									}
								}
							}
						}
					}
				}
			}
		}
	}
}
MOTION
Frames:	5
Frame Time:	0.040
-18.416	90.074	166.914	13.647	4.612	-3.124	-363.546	340.150	-169.886	-0.069	300.500	0.040	-1.232	53.752	-12.290	-0.021	362.202	-173.072	-0.001	359.951	-360.000	-355.140	70.574	-11.084	-360.165	358.676	-358.492	-360.366	357.353	-356.974	0.000	-0.000	0.000	-202.260	78.185	-291.502	-58.523	80.565	-52.390	-346.802	2.917	-334.199	-2.204	3.537	-385.814	-358.398	18.943	-360.422	0.000	19.494	-0.000	-360.735	29.817	-362.761	-0.000	29.854	-0.000	-19.733	29.366	-37.068	-0.001	28.288	-0.000	-10.225	38.555	-12.333	-0.000	36.656	-0.000	-295.286	351.431	-321.960	-343.703	20.319	-3.254	-354.006	-1.943	-0.360	-354.006	-1.943	-0.360	-201.084	80.374	-110.618	-304.800	68.919	-307.456	-10.141	1.888	-23.340	-351.585	356.169	-347.111	-5.586	27.996	-12.145	-0.000	28.507	-0.000	-2.506	33.439	-8.328	-0.000	33.840	-0.000	-341.518	36.926	-339.516	-0.000	33.948	-0.000	-351.249	37.417	-351.380	-0.000	35.384	-0.000	-83.326	335.190	-29.693	-357.830	11.987	-352.741	
-18.233	90.072	167.150	13.759	4.352	-2.741	-363.999	339.032	-170.784	-0.069	301.020	0.039	-4.879	59.427	-14.703	-0.479	361.533	-173.529	-0.026	357.626	-359.999	-354.907	71.951	-10.665	-360.108	358.756	-358.541	-360.248	357.512	-357.073	0.000	-0.000	0.000	-202.797	78.224	-292.306	-59.226	80.369	-53.185	-346.526	3.055	-334.662	-1.936	3.680	-386.446	-358.474	19.118	-360.958	0.000	19.717	-0.000	-360.897	29.906	-363.357	-0.000	29.960	-0.000	-19.709	29.232	-37.266	-0.001	28.171	-0.001	-10.473	38.630	-13.005	-0.000	36.769	-0.000	-295.266	351.569	-321.763	-343.853	20.618	-2.655	-353.988	-1.829	-0.203	-353.988	-1.829	-0.203	-200.530	80.365	-109.979	-304.990	69.011	-307.582	-10.277	2.123	-23.294	-351.753	356.453	-347.281	-5.603	28.054	-12.162	-0.000	28.567	-0.000	-2.532	33.489	-8.401	-0.000	33.897	-0.000	-341.511	36.940	-339.511	-0.000	33.962	-0.000	-351.251	37.454	-351.406	-0.000	35.420	-0.000	-83.319	335.190	-29.724	-357.819	11.976	-352.823	
-18.023	90.065	167.705	13.703	4.152	-2.237	-364.355	337.224	-171.997	-0.061	303.674	0.033	-8.655	64.882	-17.178	-0.436	363.325	-174.075	-0.000	360.000	-360.000	-355.278	71.279	-10.854	-359.943	358.826	-358.570	-359.916	357.647	-357.136	0.000	-0.000	0.000	-202.883	78.309	-292.744	-59.776	80.221	-53.899	-346.091	2.834	-335.916	-1.621	4.412	-386.726	-358.556	19.349	-361.542	0.000	20.004	-0.000	-361.088	29.999	-364.061	-0.000	30.078	-0.000	-19.635	29.026	-37.438	-0.001	27.955	-0.001	-10.752	38.692	-13.775	-0.000	36.878	-0.000	-295.252	351.724	-321.480	-344.017	20.926	-1.801	-353.991	-1.785	-0.120	-353.991	-1.785	-0.120	-199.946	80.345	-109.378	-305.051	69.321	-307.573	-10.505	2.285	-23.199	-352.113	356.665	-347.492	-5.531	28.118	-11.833	-0.000	28.615	-0.000	-2.449	33.536	-8.114	-0.000	33.919	-0.000	-341.428	36.901	-339.211	-0.000	33.940	-0.000	-351.158	37.421	-351.102	-0.000	35.393	-0.000	-83.313	335.198	-29.757	-357.800	11.988	-352.913	
-17.875	90.055	167.963	13.506	3.979	-1.982	-364.528	336.233	-172.893	-0.052	307.664	0.026	-12.848	67.324	-19.461	-0.475	363.667	-174.397	-0.001	359.951	-360.000	-355.423	71.544	-10.813	-359.771	358.898	-358.531	-359.570	357.786	-357.061	0.000	-0.000	0.000	-202.062	78.357	-291.974	-59.623	80.222	-54.070	-346.027	2.350	-337.058	-1.305	5.337	-386.869	-358.575	19.513	-361.725	0.000	20.189	-0.000	-361.155	30.101	-364.292	-0.000	30.191	-0.000	-19.608	28.942	-37.523	-0.001	27.872	-0.000	-10.904	38.836	-14.114	-0.000	37.049	-0.000	-295.277	351.732	-321.276	-344.020	20.840	-1.202	-353.978	-1.787	-0.097	-353.978	-1.787	-0.097	-200.571	80.452	-110.183	-305.287	69.449	-307.620	-10.370	2.184	-22.967	-352.473	356.782	-347.497	-5.474	28.075	-11.647	-0.000	28.562	-0.000	-2.395	33.527	-7.938	-0.000	33.897	-0.000	-341.402	36.910	-339.145	-0.000	33.954	-0.000	-351.146	37.411	-351.061	-0.000	35.384	-0.000	-83.289	335.129	-29.780	-357.866	11.779	-352.965	
-17.810	90.058	167.958	13.413	3.682	-1.864	-364.661	335.797	-173.492	-0.046	311.524	0.021	-16.058	68.385	-21.031	-0.580	364.004	-174.564	0.000	360.000	-360.000	-355.436	71.579	-10.692	-359.715	359.024	-358.514	-359.455	358.038	-357.028	0.000	-0.000	0.000	-201.590	78.336	-291.507	-59.725	80.109	-54.399	-345.979	1.937	-338.036	-1.116	6.115	-386.481	-358.574	19.604	-361.757	0.000	20.288	-0.000	-361.212	30.151	-364.497	-0.000	30.251	-0.000	-19.598	28.855	-37.670	-0.001	27.802	-0.000	-11.022	38.890	-14.416	-0.000	37.125	-0.000	-295.277	351.780	-321.155	-344.069	20.918	-0.839	-353.906	-1.808	-0.096	-353.906	-1.808	-0.096	-201.675	80.456	-111.456	-305.565	69.426	-307.737	-10.327	2.112	-22.883	-352.683	356.977	-347.598	-5.470	28.071	-11.637	-0.000	28.556	-0.000	-2.400	33.531	-7.955	-0.000	33.903	-0.000	-341.395	36.908	-339.121	-0.000	33.954	-0.000	-351.143	37.410	-351.052	-0.000	35.383	-0.000	-83.283	335.119	-29.794	-357.872	11.747	-353.000	
